<svg width="24" height="24" viewBox="0 0 24 24" fill="none" xmlns="http://www.w3.org/2000/svg">
<circle cx="12" cy="12" r="12" fill="white"/>
<path d="M8.57301 14.2H10.043C10.043 14.6013 10.2203 14.9607 10.575 15.278C10.939 15.586 11.3917 15.74 11.933 15.74C12.5117 15.74 12.9597 15.6 13.277 15.32C13.5943 15.04 13.753 14.6667 13.753 14.2C13.753 13.7613 13.5803 13.3973 13.235 13.108C12.899 12.8093 12.4417 12.66 11.863 12.66H11.233V11.33H11.863C12.4043 11.33 12.829 11.1947 13.137 10.924C13.4543 10.644 13.613 10.2893 13.613 9.86C13.613 9.45867 13.459 9.12733 13.151 8.866C12.8523 8.59533 12.4463 8.46 11.933 8.46C11.4103 8.46 10.9857 8.59533 10.659 8.866C10.3417 9.12733 10.183 9.45867 10.183 9.86H8.71301C8.71301 9.076 9.00701 8.41333 9.59501 7.872C10.1923 7.33067 10.9717 7.06 11.933 7.06C12.8663 7.06 13.6223 7.33067 14.201 7.872C14.789 8.41333 15.083 9.076 15.083 9.86C15.083 10.4947 14.8497 11.036 14.383 11.484C14.1777 11.68 13.9443 11.8387 13.683 11.96V12.03C13.9723 12.1607 14.229 12.324 14.453 12.52C14.9663 12.996 15.223 13.5793 15.223 14.27C15.223 15.0913 14.915 15.7773 14.299 16.328C13.6923 16.8693 12.9037 17.14 11.933 17.14C10.9343 17.14 10.1223 16.86 9.49701 16.3C8.88101 15.7307 8.57301 15.0307 8.57301 14.2Z" fill="#5838FC"/>
</svg>
