<svg width="112" height="112" viewBox="0 0 112 112" fill="none" xmlns="http://www.w3.org/2000/svg">
<path fill-rule="evenodd" clip-rule="evenodd" d="M112 56C112 25.0721 86.9279 0 56 0C25.0721 0 0 25.0721 0 56C0 86.9279 25.0721 112 56 112H112V56Z" fill="#FC2E90" fill-opacity="0.3"/>
<path fill-rule="evenodd" clip-rule="evenodd" d="M88.6667 56.2765C88.6674 56.1848 88.6678 56.093 88.6678 56.0011C88.6678 37.9598 74.0424 23.3345 56.0011 23.3345C37.9598 23.3345 23.3345 37.9598 23.3345 56.0011C23.3345 74.0424 37.9598 88.6678 56.0011 88.6678C56.0932 88.6678 56.1851 88.6674 56.277 88.6667H88.6667V56.2765Z" fill="white"/>
<path fill-rule="evenodd" clip-rule="evenodd" d="M70 56C70 48.268 63.732 42 56 42C48.268 42 42 48.268 42 56C42 63.732 48.268 70 56 70H70V56Z" fill="#FC2E90"/>
</svg>
