<svg width="24" height="24" viewBox="0 0 24 24" fill="none" xmlns="http://www.w3.org/2000/svg">
<path fill-rule="evenodd" clip-rule="evenodd" d="M24 12C24 5.37258 18.6274 0 12 0C5.37258 0 0 5.37258 0 12C0 18.6274 5.37258 24 12 24H24V12Z" fill="#FC2E90" fill-opacity="0.3"/>
<path fill-rule="evenodd" clip-rule="evenodd" d="M19 12C19 8.13401 15.866 5 12 5C8.13401 5 5 8.13401 5 12C5 15.866 8.13401 19 12 19H19V12Z" fill="#FC2E90"/>
<path fill-rule="evenodd" clip-rule="evenodd" d="M15 12C15 10.3431 13.6569 9 12 9C10.3431 9 9 10.3431 9 12C9 13.6569 10.3431 15 12 15H15V12Z" fill="white"/>
</svg>
