<svg width="17" height="18" viewBox="0 0 17 18" fill="none" xmlns="http://www.w3.org/2000/svg">
<path d="M7.85658 3.65208L5.43054 6.11354V10.3812C5.43054 14.4365 5.44825 14.6844 5.78471 15.0208C6.12117 15.3573 6.36908 15.375 9.96388 15.375C12.0712 15.375 13.9128 15.3042 14.0899 15.1979C14.2847 15.1094 14.9222 13.8344 15.5951 12.2938C16.693 9.72604 16.7639 9.47813 16.7639 8.22083C16.7639 6.20208 16.693 6.16667 13.5055 6.16667H10.9555L11.292 4.62604C11.4691 3.77604 11.6285 2.90833 11.6285 2.69583C11.6285 2.25313 10.8316 1.20833 10.4951 1.20833C10.3889 1.20833 9.18471 2.30625 7.85658 3.65208Z" fill="#5838FC"/>
<path d="M0.708374 11.125V15.375H2.12504H3.54171V11.125V6.875H2.12504H0.708374V11.125Z" fill="#5838FC"/>
</svg>
