<svg width="22" height="22" viewBox="0 0 22 22" fill="none" xmlns="http://www.w3.org/2000/svg">
<path d="M18.7917 2.29179C19.2271 2.72721 19.25 3.04804 19.25 11.0001C19.25 18.9522 19.2271 19.273 18.7917 19.7085C18.3562 20.1439 18.0354 20.1668 11.9167 20.1668C3.9875 20.1668 4.58333 20.4647 4.58333 16.5001V13.7501H5.5H6.41667V16.0418V18.3335H11.9167H17.4167V11.0001V3.66679H11.9167H6.41667V5.95846V8.25012H5.5H4.58333V5.50012C4.58333 1.53554 3.9875 1.83346 11.9167 1.83346C18.0354 1.83346 18.3562 1.85637 18.7917 2.29179Z" fill="white"/>
<path d="M13.8999 9.16667C15.0228 10.0375 15.9853 10.8396 16.0311 10.9542C16.077 11.1375 11.9061 14.4375 11.6082 14.4375C11.5395 14.4375 11.4936 13.8646 11.4936 13.1771V11.9167H7.82695H4.16029V11V10.0833H7.82695H11.4936V8.82292C11.4936 8.13542 11.5624 7.5625 11.654 7.58542C11.7686 7.58542 12.754 8.29583 13.8999 9.16667Z" fill="white"/>
</svg>
