<svg width="18" height="17" viewBox="0 0 18 17" fill="none" xmlns="http://www.w3.org/2000/svg">
<path d="M5.11664 1.39992L3.92497 0.208252C1.92497 1.73325 0.608305 4.08325 0.491638 6.74992H2.15831C2.28331 4.54158 3.41664 2.60825 5.11664 1.39992ZM15.4416 6.74992H17.1083C16.9833 4.08325 15.6666 1.73325 13.675 0.208252L12.4916 1.39992C14.175 2.60825 15.3166 4.54158 15.4416 6.74992ZM13.8 7.16658C13.8 4.60825 12.4333 2.46659 10.05 1.89992V1.33325C10.05 0.641585 9.49164 0.083252 8.79997 0.083252C8.1083 0.083252 7.54997 0.641585 7.54997 1.33325V1.89992C5.15831 2.46659 3.79997 4.59992 3.79997 7.16658V11.3333L2.1333 12.9999V13.8333H15.4666V12.9999L13.8 11.3333V7.16658ZM8.79997 16.3333C8.91664 16.3333 9.02497 16.3249 9.1333 16.2999C9.67497 16.1833 10.1166 15.8166 10.3333 15.3166C10.4166 15.1166 10.4583 14.8999 10.4583 14.6666H7.12497C7.1333 15.5833 7.87497 16.3333 8.79997 16.3333Z" fill="#8597A9"/>
</svg>
